<!--?xml version="1.0" encoding="utf-8"?-->
<!-- Generator: Adobe Illustrator 15.1.0, SVG Export Plug-In . SVG Version: 6.00 Build 0)  -->

<svg version="1.1" id="_x32_" xmlns="http://www.w3.org/2000/svg" xmlns:xlink="http://www.w3.org/1999/xlink" x="0px" y="0px" width="512px" height="512px" viewBox="0 0 512 512" style="width: 32px; height: 32px; opacity: 1;" xml:space="preserve">
<style type="text/css">

	.st0{fill:#4B4B4B;}

</style>
<g>
	<path class="st0" d="M60.005,167.837c15.563,21.813,9.578,49.703-19.719,89.281C1.864,309.041-2.292,356.791,0.833,378.603
		c3.109,21.797,50.875,16.609,52.938,2.078c3.531-24.75-18.578-38.797,19.75-119.391c30.094-63.344,6.203-96.563-2.094-104.859
		C63.13,148.119,52.739,160.572,60.005,167.837z" style="fill: rgb(255, 255, 255);"></path>
	<path class="st0" d="M504.864,238.353c-12.766-28.141-37.063-28.141-21.734,5.109c29.422,55-71.609,70.344-66.5,136.828
		c1,12.828,47.109,17.469,52.438,2.578c6.391-17.922-3.844-24.313,21.75-53.719C513.396,303.181,517.661,266.494,504.864,238.353z" style="fill: rgb(255, 255, 255);"></path>
	<path class="st0" d="M450.317,129.056C427.583,18.728,249.755-18.694,167.896,73.384C95.442,154.9,131.708,238.4,126.021,287.728
		c0,0-19.5,49.094,6.063,77.234c42.906,47.187,200.797,33.859,198.266-14.078l15.047-24.516
		C378.442,295.041,479.942,272.884,450.317,129.056z M165.333,344.494c-8.469,0-15.328-6.875-15.328-15.344
		s6.859-15.344,15.328-15.344c8.484,0,15.359,6.875,15.359,15.344S173.817,344.494,165.333,344.494z M275.333,359.837
		c-8.484,0-15.344-6.875-15.344-15.344s6.859-15.344,15.344-15.344c8.469,0,15.344,6.875,15.344,15.344
		S283.802,359.837,275.333,359.837z" style="fill: rgb(255, 255, 255);"></path>
	<path class="st0" d="M361.786,363.087c8.391,49.906-31.313,76.906-30.656,106.109c0.609,28.156,40.859,26.938,46.375,5.75
		c14.266-49.75,12-94.375,2.281-116.234C371.411,339.869,357.896,339.978,361.786,363.087z" style="fill: rgb(255, 255, 255);"></path>
</g>
</svg>
